# xmcd
#
# Track frame offsets:
# 150
# 13195
# 27999
# 38868
# 54552
# 70177
# 88748
# 96523
# 115223
# 137737
# 146425
# 159685
# 181825
# 197309
#
# Disc length: 2841 seconds
#
#
# Revision: 0
# Processed by: cddbd v1.5.1PL2 Copyright (c) Steve Scherf et al.
# Submitted via: FreeRIP 2.944 
#
DISCID=c00b170e
DTITLE=Larry the Cable Guy - Lord, I Apoligize
DYEAR=1900
DGENRE=Country Comedy
TTITLE0=I Made the Bigg Times Now
TTITLE1=Looking Good at the Flea Market
TTITLE2=Couldn't Keep the Pizza Lit
TTITLE3=No Hair, Just a Red Head
TTITLE4=Keep the Chips Fresh
TTITLE5=Jump Up in the Air and Get Stuck
TTITLE6=Let Me Eat your Shorts
TTITLE7=Can't Understand My Accent
TTITLE8=The Worst Dentist I've Even Been To
TTITLE9=Martians Got a Thing for Rednecks
TTITLE10=Going in Circles for Hours
TTITLE11=People Like My Analogies
TTITLE12=Toddler Mail
TTITLE13=Lord, I Apoligize
EXTD=
EXTT0=
EXTT1=
EXTT2=
EXTT3=
EXTT4=
EXTT5=
EXTT6=
EXTT7=
EXTT8=
EXTT9=
EXTT10=
EXTT11=
EXTT12=
EXTT13=
PLAYORDER=
